# Blender v2.81 (sub 16) OBJ File: ''
# www.blender.org
mtllib hatch2B.mtl
o Cylinder.003_Cylinder.010
v 0.315991 3.346424 1.438250
v -0.315991 3.346424 1.438250
v 0.604663 3.346424 1.309725
v -0.604663 3.346424 1.309725
v 0.144083 3.346424 1.438250
v -0.144083 3.346424 1.438250
v 0.315991 2.829086 1.438250
v -0.315991 2.829086 1.438250
v 0.604663 2.829086 1.309725
v -0.604663 2.829086 1.309725
v 0.144083 2.934994 1.438250
v -0.144083 2.934994 1.438250
v -0.144083 3.346424 1.380911
v -0.315991 3.346424 1.380911
v 0.604663 3.346424 1.252386
v 0.315991 3.346424 1.380911
v -0.604663 3.346424 1.252386
v 0.144083 3.346424 1.380911
v 0.315991 2.829086 1.380911
v -0.315991 2.829086 1.380911
v 0.604663 2.829086 1.252386
v -0.604663 2.829086 1.252386
v 0.144083 2.934994 1.380911
v -0.144083 2.934994 1.380911
vt 0.488889 0.827304
vt 0.488889 0.840082
vt 0.466667 0.840082
vt 0.466667 0.827304
vt 0.566667 0.827304
vt 0.566667 0.840082
vt 0.533333 0.840082
vt 0.533333 0.827304
vt 0.433333 0.840082
vt 0.433333 0.827304
vt 0.511111 0.840082
vt 0.511111 0.827304
vt 0.488889 0.827304
vt 0.466667 0.827304
vt 0.466667 0.840082
vt 0.488889 0.840082
vt 0.566667 0.827304
vt 0.533333 0.827304
vt 0.533333 0.840082
vt 0.566667 0.840082
vt 0.433333 0.827304
vt 0.433333 0.840082
vt 0.511111 0.827304
vt 0.511111 0.840082
vn 0.0000 0.0000 1.0000
vn 0.4067 0.0000 0.9135
vn -0.4067 0.0000 0.9135
vn -0.0000 0.0000 -1.0000
vn -0.4067 0.0000 -0.9135
vn 0.4067 0.0000 -0.9135
vn 0.0000 -1.0000 0.0000
vn 0.0000 1.0000 0.0000
vn 1.0000 0.0000 0.0000
vn -1.0000 0.0000 0.0000
vn 0.5245 -0.8514 0.0000
vn -0.5245 -0.8514 0.0000
usemtl None
s off
f 12/1/1 6/2/1 2/3/1 8/4/1
f 9/5/2 3/6/2 1/7/2 7/8/2
f 8/4/3 2/3/3 4/9/3 10/10/3
f 7/8/1 1/7/1 5/11/1 11/12/1
f 11/12/1 5/11/1 6/2/1 12/1/1
f 24/13/4 20/14/4 14/15/4 13/16/4
f 21/17/5 19/18/5 16/19/5 15/20/5
f 20/14/6 22/21/6 17/22/6 14/15/6
f 19/18/4 23/23/4 18/24/4 16/19/4
f 23/23/4 24/13/4 13/16/4 18/24/4
f 10/10/7 22/21/7 20/14/7 8/4/7
f 1/7/8 16/19/8 18/24/8 5/11/8
f 6/2/8 13/16/8 14/15/8 2/3/8
f 9/5/9 21/17/9 15/20/9 3/6/9
f 7/8/7 19/18/7 21/17/7 9/5/7
f 5/11/8 18/24/8 13/16/8 6/2/8
f 12/1/7 24/13/7 23/23/7 11/12/7
f 3/6/8 15/20/8 16/19/8 1/7/8
f 4/9/10 17/22/10 22/21/10 10/10/10
f 8/4/11 20/14/11 24/13/11 12/1/11
f 11/12/12 23/23/12 19/18/12 7/8/12
f 2/3/8 14/15/8 17/22/8 4/9/8
