# Blender v2.81 (sub 16) OBJ File: ''
# www.blender.org
mtllib hatch1.mtl
o Cylinder.005_Cylinder.010
v -0.152363 3.382152 1.472288
v 0.152363 3.382152 1.472288
v -0.152363 3.713348 1.472288
v 0.152363 3.713348 1.472288
v 0.152363 3.382152 1.445927
v -0.152363 3.382152 1.445927
v -0.152363 3.713348 1.445927
v 0.152363 3.713348 1.445927
v 0.050788 3.382152 1.472288
v -0.050788 3.382152 1.472288
v 0.046398 3.676179 1.472288
v -0.046398 3.676179 1.472288
v 0.050788 3.382152 1.445927
v -0.050788 3.382152 1.445927
v 0.046398 3.676179 1.445927
v -0.046398 3.676179 1.445927
vt 0.496296 0.827304
vt 0.496296 0.840082
vt 0.488889 0.840082
vt 0.488889 0.827304
vt 0.496296 0.827304
vt 0.488889 0.827304
vt 0.488889 0.840082
vt 0.496296 0.840082
vt 0.511111 0.827304
vt 0.511111 0.827304
vt 0.511111 0.840082
vt 0.511111 0.840082
vt 0.503704 0.827304
vt 0.503704 0.827304
vt 0.503704 0.840082
vt 0.503704 0.840082
vn 0.0000 0.0000 1.0000
vn 0.0000 0.0000 -1.0000
vn 1.0000 0.0000 0.0000
vn 0.0000 -1.0000 0.0000
vn 0.3310 0.9436 0.0000
vn -1.0000 0.0000 0.0000
vn -0.3310 0.9436 0.0000
vn 0.0000 1.0000 0.0000
usemtl None
s off
f 10/1/1 12/2/1 3/3/1 1/4/1
f 14/5/2 6/6/2 7/7/2 16/8/2
f 2/9/3 5/10/3 8/11/3 4/12/3
f 9/13/4 13/14/4 5/10/4 2/9/4
f 12/2/5 16/8/5 7/7/5 3/3/5
f 3/3/6 7/7/6 6/6/6 1/4/6
f 4/12/7 8/11/7 15/15/7 11/16/7
f 11/16/8 15/15/8 16/8/8 12/2/8
f 1/4/4 6/6/4 14/5/4 10/1/4
f 10/1/4 14/5/4 13/14/4 9/13/4
f 5/10/2 13/14/2 15/15/2 8/11/2
f 13/14/2 14/5/2 16/8/2 15/15/2
f 2/9/1 4/12/1 11/16/1 9/13/1
f 9/13/1 11/16/1 12/2/1 10/1/1
